<svg xmlns="http://www.w3.org/2000/svg" width="1052" height="720" viewBox="0 0 1052 720" fill="none">
  <rect width="1052" height="720" fill="#0A5C5C"/>
  <circle cx="250" cy="200" r="200" fill="#0F7A7A" opacity=".55"/>
  <!-- heart + mind -->
  <g transform="translate(400,140)">
    <path d="M126 260 C40 190 10 130 10 85 C10 40 45 10 85 10 C105 10 120 20 126 35 C132 20 147 10 167 10 C207 10 242 40 242 85 C242 130 212 190 126 260 Z" fill="#C5E86C"/>
    <circle cx="126" cy="120" r="48" fill="#0A5C5C"/>
    <path d="M100 120 Q126 95 152 120 Q126 155 100 120" fill="#C5E86C"/>
  </g>
  <!-- badge CRP style -->
  <g transform="translate(700,420)">
    <rect width="240" height="100" rx="50" fill="#F4F7F0"/>
    <text x="120" y="62" text-anchor="middle" font-family="Arial,sans-serif" font-weight="700" font-size="28" fill="#0F7A7A">CRP 06/140539</text>
  </g>
  <text x="526" y="680" text-anchor="middle" font-family="Georgia,serif" font-size="28" fill="#F4F7F0" opacity=".85">Sobre mim — placeholder</text>
</svg>